<?xml version="1.0" encoding="UTF-8"?>
<svg version="1.1" xmlns="http://www.w3.org/2000/svg" width="1641" height="196">
<path d="M0 0 C45.54 0 91.08 0 138 0 C134.7459427 9.76217189 129.60193196 18.79613608 125 28 C90.68 28 56.36 28 21 28 C20.34 29.98 19.68 31.96 19 34 C18.01 35.98 17.02 37.96 16 40 C49.66 40.33 83.32 40.66 118 41 C107.02357524 64.17245227 95.46686046 87.06627907 84 110 C38.46 110 -7.08 110 -54 110 C-50.7459427 100.23782811 -45.60193196 91.20386392 -41 82 C-6.68 82 27.64 82 63 82 C63.66 80.02 64.32 78.04 65 76 C65.99 74.02 66.98 72.04 68 70 C34.34 69.67 0.68 69.34 -34 69 C-23.02357524 45.82754773 -11.46686046 22.93372093 0 0 Z " fill="#00C3FE" transform="translate(291,14)"/>
<path d="M0 0 C45.54 0 91.08 0 138 0 C136.70508152 3.88475543 135.57643331 7.0962949 133.78536987 10.66976929 C133.34508453 11.55308929 132.90479919 12.4364093 132.45117188 13.34649658 C131.97212402 14.29740173 131.49307617 15.24830688 130.99951172 16.22802734 C130.492034 17.24327484 129.98455627 18.25852234 129.46170044 19.30453491 C127.78814948 22.65024668 126.10895375 25.99309118 124.4296875 29.3359375 C123.26634411 31.65889304 122.10335451 33.98202579 120.94070435 36.30532837 C118.19544225 41.78900393 115.4466257 47.27088382 112.69606698 52.75190413 C109.56352698 58.99459367 106.4355549 65.23956795 103.30795646 71.4847343 C96.87703495 84.3256982 90.43980718 97.1634901 84 110 C72.45 110 60.9 110 49 110 C50.60810777 105.17567669 52.43920336 100.84753056 54.71533203 96.34228516 C55.27172363 95.22906387 55.27172363 95.22906387 55.83935547 94.09335327 C57.05838887 91.65667255 58.283054 89.22286991 59.5078125 86.7890625 C60.35727297 85.09387425 61.20637884 83.39850827 62.05514526 81.70297241 C64.28412238 77.25263449 66.517895 72.80472065 68.75268555 68.3572998 C71.03464773 63.81387697 73.31205159 59.26817069 75.58984375 54.72265625 C80.05544545 45.81286744 84.52611825 36.90563368 89 28 C83.55691738 27.30860993 78.17559369 26.85956307 73 29 C67.91568711 33.49377839 65.45903416 40.51257573 62.72265625 46.5625 C61.85662989 48.35497242 60.98499094 50.144743 60.10801697 51.93188477 C57.82181813 56.62790881 55.61213661 61.35612279 53.41717529 66.09533691 C51.16424681 70.92601348 48.84256875 75.72333932 46.52539062 80.5234375 C42.79644604 88.26290007 39.10621502 96.01919294 35.48513794 103.80978394 C33.1079619 108.8920381 33.1079619 108.8920381 32 110 C29.40640678 110.08851529 26.83960309 110.11525945 24.24609375 110.09765625 C23.47064713 110.0962413 22.6952005 110.09482635 21.89625549 110.09336853 C19.40996506 110.08775345 16.9237634 110.07519846 14.4375 110.0625 C12.75586067 110.05748694 11.07421994 110.0529237 9.39257812 110.04882812 C5.26168434 110.03777913 1.13085724 110.02050445 -3 110 C4.66533086 93.48708329 12.8269145 77.22557906 20.98840332 60.95452881 C22.80042405 57.34088707 24.61005862 53.72605076 26.41992188 50.11132812 C29.94434117 43.07307763 33.47153111 36.03622146 37 29 C31.72 28.67 26.44 28.34 21 28 C20.34 29.98 19.68 31.96 19 34 C17.79685337 36.57821498 16.56685682 39.11981991 15.28466797 41.65771484 C14.72827637 42.77093613 14.72827637 42.77093613 14.16064453 43.90664673 C12.94161113 46.34332745 11.716946 48.77713009 10.4921875 51.2109375 C9.64272703 52.90612575 8.79362116 54.60149173 7.94485474 56.29702759 C5.71587762 60.74736551 3.482105 65.19527935 1.24731445 69.6427002 C-1.03464773 74.18612303 -3.31205159 78.73182931 -5.58984375 83.27734375 C-10.0554462 92.18713405 -14.52653862 101.09415295 -19 110 C-30.55 110 -42.1 110 -54 110 C-52.70508152 106.11524457 -51.57643331 102.9037051 -49.78536987 99.33023071 C-49.34599531 98.4487266 -48.90662075 97.56722248 -48.45393181 96.65900612 C-47.97397318 95.70628508 -47.49401455 94.75356403 -46.99951172 93.77197266 C-46.48383699 92.74038214 -45.96816227 91.70879162 -45.43686104 90.64594078 C-43.77152955 87.31676712 -42.10072551 83.99037486 -40.4296875 80.6640625 C-39.39880717 78.60524344 -38.36828747 76.54624377 -37.33813477 74.48706055 C-33.52145973 66.86418418 -29.69780775 59.2448027 -25.875 51.625 C-17.33625 34.58875 -8.7975 17.5525 0 0 Z " fill="#00C3FE" transform="translate(1351,14)"/>
<path d="M0 0 C45.54 0 91.08 0 138 0 C136.70508152 3.88475543 135.57643331 7.0962949 133.78536987 10.66976929 C133.34508453 11.55308929 132.90479919 12.4364093 132.45117188 13.34649658 C131.97212402 14.29740173 131.49307617 15.24830688 130.99951172 16.22802734 C130.492034 17.24327484 129.98455627 18.25852234 129.46170044 19.30453491 C127.78814948 22.65024668 126.10895375 25.99309118 124.4296875 29.3359375 C123.26634411 31.65889304 122.10335451 33.98202579 120.94070435 36.30532837 C118.19544225 41.78900393 115.4466257 47.27088382 112.69606698 52.75190413 C109.56352698 58.99459367 106.4355549 65.23956795 103.30795646 71.4847343 C96.87703495 84.3256982 90.43980718 97.1634901 84 110 C72.45 110 60.9 110 49 110 C51.25 103.25 51.25 103.25 52.78759766 100.19775391 C53.13250244 99.50818604 53.47740723 98.81861816 53.83276367 98.1081543 C54.18959229 97.404729 54.5464209 96.70130371 54.9140625 95.9765625 C55.24623779 95.31422607 55.57841309 94.65188965 55.9206543 93.96948242 C57.15103532 91.51910689 58.38842256 89.07225436 59.625 86.625 C62.38875 81.13875 65.1525 75.6525 68 70 C45.89 70 23.78 70 1 70 C-5.6 83.2 -12.2 96.4 -19 110 C-30.55 110 -42.1 110 -54 110 C-52.70508152 106.11524457 -51.57643331 102.9037051 -49.78536987 99.33023071 C-49.34599531 98.4487266 -48.90662075 97.56722248 -48.45393181 96.65900612 C-47.97397318 95.70628508 -47.49401455 94.75356403 -46.99951172 93.77197266 C-46.48383699 92.74038214 -45.96816227 91.70879162 -45.43686104 90.64594078 C-43.77152955 87.31676712 -42.10072551 83.99037486 -40.4296875 80.6640625 C-39.39880717 78.60524344 -38.36828747 76.54624377 -37.33813477 74.48706055 C-33.52145973 66.86418418 -29.69780775 59.2448027 -25.875 51.625 C-17.33625 34.58875 -8.7975 17.5525 0 0 Z M21 28 C19.02 32.29 17.04 36.58 15 41 C37.44 41 59.88 41 83 41 C87.14268652 34.79137822 87.14268652 34.79137822 89 28 C66.56 28 44.12 28 21 28 Z " fill="#00C3FE" transform="translate(1503,14)"/>
<path d="M0 0 C45.54 0 91.08 0 138 0 C136.70508152 3.88475543 135.57643331 7.0962949 133.78536987 10.66976929 C133.34508453 11.55308929 132.90479919 12.4364093 132.45117188 13.34649658 C131.97212402 14.29740173 131.49307617 15.24830688 130.99951172 16.22802734 C130.492034 17.24327484 129.98455627 18.25852234 129.46170044 19.30453491 C127.78814948 22.65024668 126.10895375 25.99309118 124.4296875 29.3359375 C123.26634411 31.65889304 122.10335451 33.98202579 120.94070435 36.30532837 C118.19544225 41.78900393 115.4466257 47.27088382 112.69606698 52.75190413 C109.56352698 58.99459367 106.4355549 65.23956795 103.30795646 71.4847343 C96.87703495 84.3256982 90.43980718 97.1634901 84 110 C72.45 110 60.9 110 49 110 C51.25 103.25 51.25 103.25 52.78759766 100.19775391 C53.13250244 99.50818604 53.47740723 98.81861816 53.83276367 98.1081543 C54.18959229 97.404729 54.5464209 96.70130371 54.9140625 95.9765625 C55.24623779 95.31422607 55.57841309 94.65188965 55.9206543 93.96948242 C57.15103532 91.51910689 58.38842256 89.07225436 59.625 86.625 C62.38875 81.13875 65.1525 75.6525 68 70 C45.89 70 23.78 70 1 70 C-5.6 83.2 -12.2 96.4 -19 110 C-30.55 110 -42.1 110 -54 110 C-52.70508152 106.11524457 -51.57643331 102.9037051 -49.78536987 99.33023071 C-49.34599531 98.4487266 -48.90662075 97.56722248 -48.45393181 96.65900612 C-47.97397318 95.70628508 -47.49401455 94.75356403 -46.99951172 93.77197266 C-46.48383699 92.74038214 -45.96816227 91.70879162 -45.43686104 90.64594078 C-43.77152955 87.31676712 -42.10072551 83.99037486 -40.4296875 80.6640625 C-39.39880717 78.60524344 -38.36828747 76.54624377 -37.33813477 74.48706055 C-33.52145973 66.86418418 -29.69780775 59.2448027 -25.875 51.625 C-17.33625 34.58875 -8.7975 17.5525 0 0 Z M21 28 C19.02 32.29 17.04 36.58 15 41 C37.44 41 59.88 41 83 41 C87.14268652 34.79137822 87.14268652 34.79137822 89 28 C66.56 28 44.12 28 21 28 Z " fill="#00C3FE" transform="translate(1200,14)"/>
<path d="M0 0 C45.54 0 91.08 0 138 0 C136.70508152 3.88475543 135.57643331 7.0962949 133.78536987 10.66976929 C133.34508453 11.55308929 132.90479919 12.4364093 132.45117188 13.34649658 C131.97212402 14.29740173 131.49307617 15.24830688 130.99951172 16.22802734 C130.492034 17.24327484 129.98455627 18.25852234 129.46170044 19.30453491 C127.78814948 22.65024668 126.10895375 25.99309118 124.4296875 29.3359375 C123.26634411 31.65889304 122.10335451 33.98202579 120.94070435 36.30532837 C118.19544225 41.78900393 115.4466257 47.27088382 112.69606698 52.75190413 C109.56352698 58.99459367 106.4355549 65.23956795 103.30795646 71.4847343 C96.87703495 84.3256982 90.43980718 97.1634901 84 110 C72.45 110 60.9 110 49 110 C51.25 103.25 51.25 103.25 52.78759766 100.19775391 C53.13250244 99.50818604 53.47740723 98.81861816 53.83276367 98.1081543 C54.18959229 97.404729 54.5464209 96.70130371 54.9140625 95.9765625 C55.24623779 95.31422607 55.57841309 94.65188965 55.9206543 93.96948242 C57.15103532 91.51910689 58.38842256 89.07225436 59.625 86.625 C62.38875 81.13875 65.1525 75.6525 68 70 C45.89 70 23.78 70 1 70 C-5.6 83.2 -12.2 96.4 -19 110 C-30.55 110 -42.1 110 -54 110 C-52.70508152 106.11524457 -51.57643331 102.9037051 -49.78536987 99.33023071 C-49.34599531 98.4487266 -48.90662075 97.56722248 -48.45393181 96.65900612 C-47.97397318 95.70628508 -47.49401455 94.75356403 -46.99951172 93.77197266 C-46.48383699 92.74038214 -45.96816227 91.70879162 -45.43686104 90.64594078 C-43.77152955 87.31676712 -42.10072551 83.99037486 -40.4296875 80.6640625 C-39.39880717 78.60524344 -38.36828747 76.54624377 -37.33813477 74.48706055 C-33.52145973 66.86418418 -29.69780775 59.2448027 -25.875 51.625 C-17.33625 34.58875 -8.7975 17.5525 0 0 Z M21 28 C19.02 32.29 17.04 36.58 15 41 C37.44 41 59.88 41 83 41 C87.14268652 34.79137822 87.14268652 34.79137822 89 28 C66.56 28 44.12 28 21 28 Z " fill="#00C3FE" transform="translate(897,14)"/>
<path d="M0 0 C45.54 0 91.08 0 138 0 C136.70508152 3.88475543 135.57643331 7.0962949 133.78536987 10.66976929 C133.34508453 11.55308929 132.90479919 12.4364093 132.45117188 13.34649658 C131.97212402 14.29740173 131.49307617 15.24830688 130.99951172 16.22802734 C130.492034 17.24327484 129.98455627 18.25852234 129.46170044 19.30453491 C127.78814948 22.65024668 126.10895375 25.99309118 124.4296875 29.3359375 C123.26634411 31.65889304 122.10335451 33.98202579 120.94070435 36.30532837 C118.19544225 41.78900393 115.4466257 47.27088382 112.69606698 52.75190413 C109.56352698 58.99459367 106.4355549 65.23956795 103.30795646 71.4847343 C96.87703495 84.3256982 90.43980718 97.1634901 84 110 C72.45 110 60.9 110 49 110 C51.25 103.25 51.25 103.25 52.78759766 100.19775391 C53.13250244 99.50818604 53.47740723 98.81861816 53.83276367 98.1081543 C54.18959229 97.404729 54.5464209 96.70130371 54.9140625 95.9765625 C55.24623779 95.31422607 55.57841309 94.65188965 55.9206543 93.96948242 C57.15103532 91.51910689 58.38842256 89.07225436 59.625 86.625 C62.38875 81.13875 65.1525 75.6525 68 70 C45.89 70 23.78 70 1 70 C-5.6 83.2 -12.2 96.4 -19 110 C-30.55 110 -42.1 110 -54 110 C-52.70508152 106.11524457 -51.57643331 102.9037051 -49.78536987 99.33023071 C-49.34599531 98.4487266 -48.90662075 97.56722248 -48.45393181 96.65900612 C-47.97397318 95.70628508 -47.49401455 94.75356403 -46.99951172 93.77197266 C-46.48383699 92.74038214 -45.96816227 91.70879162 -45.43686104 90.64594078 C-43.77152955 87.31676712 -42.10072551 83.99037486 -40.4296875 80.6640625 C-39.39880717 78.60524344 -38.36828747 76.54624377 -37.33813477 74.48706055 C-33.52145973 66.86418418 -29.69780775 59.2448027 -25.875 51.625 C-17.33625 34.58875 -8.7975 17.5525 0 0 Z M21 28 C19.02 32.29 17.04 36.58 15 41 C37.44 41 59.88 41 83 41 C87.14268652 34.79137822 87.14268652 34.79137822 89 28 C66.56 28 44.12 28 21 28 Z " fill="#00C3FE" transform="translate(442,14)"/>
<path d="M0 0 C11.55 0 23.1 0 35 0 C32.75 6.75 32.75 6.75 31.21240234 9.80224609 C30.86749756 10.49181396 30.52259277 11.18138184 30.16723633 11.8918457 C29.63199341 12.94698364 29.63199341 12.94698364 29.0859375 14.0234375 C28.75376221 14.68577393 28.42158691 15.34811035 28.0793457 16.03051758 C26.84896468 18.48089311 25.61157744 20.92774564 24.375 23.375 C20.229375 31.604375 20.229375 31.604375 16 40 C38.11 40 60.22 40 83 40 C89.6 26.8 96.2 13.6 103 0 C114.55 0 126.1 0 138 0 C136.70508152 3.88475543 135.57643331 7.0962949 133.78536987 10.66976929 C133.12630803 11.99202546 133.12630803 11.99202546 132.45393181 13.34099388 C131.97397318 14.29371492 131.49401455 15.24643597 130.99951172 16.22802734 C130.48383699 17.25961786 129.96816227 18.29120838 129.43686104 19.35405922 C127.77152955 22.68323288 126.10072551 26.00962514 124.4296875 29.3359375 C123.39880717 31.39475656 122.36828747 33.45375623 121.33813477 35.51293945 C117.52145973 43.13581582 113.69780775 50.7551973 109.875 58.375 C101.33625 75.41125 92.7975 92.4475 84 110 C38.46 110 -7.08 110 -54 110 C-50.7459427 100.23782811 -45.60193196 91.20386392 -41 82 C-6.68 82 27.64 82 63 82 C63.66 80.02 64.32 78.04 65 76 C65.99 74.02 66.98 72.04 68 70 C34.34 69.67 0.68 69.34 -34 69 C-23.65655214 47.1638323 -23.65655214 47.1638323 -18.65234375 37.20703125 C-18.11017715 36.12411301 -17.56801056 35.04119476 -17.00941467 33.92546082 C-15.32069655 30.55350757 -13.62916642 27.18297491 -11.9375 23.8125 C-10.77389945 21.49032911 -9.61048683 19.16806405 -8.44726562 16.84570312 C-5.63401229 11.22920803 -2.81693754 5.61465413 0 0 Z " fill="#00C3FE" transform="translate(745,14)"/>
<path d="M0 0 C0.99386719 0.00902344 1.98773438 0.01804688 3.01171875 0.02734375 C4.15060547 0.04474609 4.15060547 0.04474609 5.3125 0.0625 C4.89097656 0.619375 4.46945313 1.17625 4.03515625 1.75 C0.29239978 6.96343959 -1.89370235 10.567126 -1.6875 17.0625 C0.40680942 25.63762517 7.89151106 29.32848363 14.93188477 33.68237305 C17.58858001 35.26783225 20.25955309 36.82572909 22.9375 38.375 C31.57428211 43.42732094 40.1400812 48.56368972 48.57226562 53.95117188 C50.24718865 55.02079163 51.92816927 56.08090765 53.609375 57.140625 C66.33971146 65.34749165 77.43109486 74.57341937 80.94628906 89.98071289 C83.43901148 104.15100894 80.60478911 117.91487148 72.80859375 129.98828125 C70.86602126 132.68150839 68.80558524 134.86621062 66.3125 137.0625 C65.73886719 137.61550781 65.16523437 138.16851562 64.57421875 138.73828125 C54.0277654 148.60840893 40.66517273 152.79797914 26.28125 152.34375 C12.62675635 151.05016639 0.59180766 145.21886888 -8.6875 135.0625 C-17.35057149 123.62038379 -20.41732097 111.92435074 -22.6875 98.0625 C-24.57929203 97.3810177 -24.57929203 97.3810177 -26.6875 97.0625 C-29.07662397 99.03033176 -29.07662397 99.03033176 -29.0625 102.75 C-28.72409921 116.71467276 -22.93889603 129.39793254 -13.578125 139.5546875 C-7.95172835 144.43596676 -1.29831968 147.70436583 5.3125 151.0625 C5.3125 151.3925 5.3125 151.7225 5.3125 152.0625 C-10.05463097 152.95478502 -21.93464322 148.45478721 -33.875 138.875 C-42.52584095 130.94069335 -49.08792679 118.50567023 -49.92578125 106.70703125 C-50.09953472 97.73586532 -49.90067118 90.74741622 -43.6640625 83.8125 C-38.0244365 78.42309631 -33.17943829 76.15221261 -25.375 75.6875 C-17.54250359 75.94059087 -11.55546754 78.68670167 -6.1875 84.375 C-2.36879394 89.10620811 -1.06953466 93.00220129 -0.31640625 99.03515625 C0.98815751 108.90597051 3.29348487 117.53539466 11.3125 124.0625 C19.89307735 130.0860653 26.7818544 130.87522899 37.3125 130.0625 C44.9293847 128.18931058 51.75634121 123.17899393 55.88671875 116.52734375 C60.90988089 106.75448676 61.31807798 99.30673141 57.96875 88.87109375 C53.45846953 81.22276437 45.00778226 76.70769662 37.625 72.1875 C36.59987305 71.55183105 35.57474609 70.91616211 34.51855469 70.26123047 C28.63027022 66.63367383 22.69524714 63.0977732 16.71484375 59.625 C16.07714554 59.25414276 15.43944733 58.88328552 14.78242493 58.50119019 C11.68264961 56.70065528 8.5777229 54.91028221 5.4621582 53.13720703 C-18.32850209 39.4915652 -18.32850209 39.4915652 -21.6875 30.0625 C-23.36528399 22.87047055 -22.92594161 16.71407095 -19.6875 10.0625 C-15.27413321 2.96958909 -8.1871454 -0.09631936 0 0 Z " fill="#00C3FD" transform="translate(49.6875,35.9375)"/>
<path d="M0 0 C14.72009174 -0.87929752 27.15376394 3.75501755 38.3125 13.3125 C45.20494725 19.83356341 49.59125487 27.19953781 53 36 C53.4125 37.051875 53.825 38.10375 54.25 39.1875 C56.07669054 48.4731769 56.33374087 57.86908558 51 66 C47.17389354 70.53091554 42.66480073 74.11173309 37 76 C29.22208997 76.64904584 22.46151852 76.74253972 16 72 C8.73256027 65.54005358 6.17694663 59.76426608 5.125 50.125 C3.89527575 41.12909414 0.82276728 34.16298319 -6 28 C-14.11429959 22.53872358 -21.24699039 21.01776562 -31 22 C-39.7944551 24.22027499 -46.07421339 28.35082175 -51 36 C-54.73916918 43.37211197 -56.52996484 50.54285267 -54.26953125 58.60546875 C-49.3933593 72.07962553 -35.66760063 78.35860829 -23.9375 85.3125 C-22.84203857 85.96694092 -21.74657715 86.62138184 -20.61791992 87.2956543 C-15.79092883 90.17485625 -10.95531528 93.03676892 -6.0859375 95.84375 C0.69311526 99.7533784 7.34144707 103.75138734 13.75 108.25 C14.31098389 108.63841064 14.87196777 109.02682129 15.44995117 109.42700195 C20.23043543 112.87295567 25.02428554 117.30082367 27 123 C27.82925735 130.91651493 28.02479414 137.61715339 23 144 C19.63273616 148.00431375 16.14339296 150.80209332 11 152 C7.31737006 152.22861131 3.68379312 152.1798597 0 152 C0 150 0 150 2.4375 147.5 C3.283125 146.675 4.12875 145.85 5 145 C6.8620209 141.27595819 6.42088388 137.06435623 6 133 C1.8019613 123.268183 -10.97303211 118.16656114 -19.68725586 112.97290039 C-68.60831491 83.80522849 -68.60831491 83.80522849 -75.08203125 64.828125 C-78.4143599 50.93160553 -76.12384054 37.2209031 -69.3125 24.8125 C-62.12104835 13.58374215 -50.89760745 4.87632018 -37.8984375 1.4453125 C-22.69732623 -0.89016821 -8.44944241 0.87507621 4.62109375 9.24609375 C15.78979725 17.48049092 23.29107277 28.61311604 25.55078125 42.34765625 C25.88070046 44.62183215 26.18961734 46.89920253 26.47265625 49.1796875 C26.84519048 52.19280304 26.84519048 52.19280304 29 55 C31.58380177 55.25030977 31.58380177 55.25030977 34 55 C34.7434515 40.37878722 29.88777965 26.20371621 20.9375 14.625 C16.78392919 10.2052965 11.41569759 7.56250064 6.109375 4.76171875 C3.56916601 3.32247974 1.86335802 2.19417158 0 0 Z " fill="#00C3FD" transform="translate(76,8)"/>
<path d="M0 0 C45.54 0 91.08 0 138 0 C134.7459427 9.76217189 129.60193196 18.79613608 125 28 C107.84 28.33 90.68 28.66 73 29 C70.12410156 34.76339844 67.24820312 40.52679688 64.28515625 46.46484375 C62.46701664 50.1062299 60.64876012 53.74755671 58.83007812 57.38867188 C55.94065935 63.17349722 53.05168618 68.95854222 50.1652832 74.74487305 C47.83931521 79.40764007 45.51141888 84.06943955 43.18215752 88.73056221 C42.29192162 90.51288786 41.4023922 92.29556656 40.51356697 94.07859612 C39.27268905 96.56756521 38.02935048 99.05528986 36.78540039 101.54272461 C36.41496613 102.28718842 36.04453186 103.03165222 35.66287231 103.79867554 C33.11405216 108.88594784 33.11405216 108.88594784 32 110 C29.40640678 110.08851529 26.83960309 110.11525945 24.24609375 110.09765625 C23.47064713 110.0962413 22.6952005 110.09482635 21.89625549 110.09336853 C19.40996506 110.08775345 16.9237634 110.07519846 14.4375 110.0625 C12.75586067 110.05748694 11.07421994 110.0529237 9.39257812 110.04882812 C5.26168434 110.03777913 1.13085724 110.02050445 -3 110 C4.66533086 93.48708329 12.8269145 77.22557906 20.98840332 60.95452881 C23.12139635 56.70078462 25.25125972 52.44547257 27.38167572 48.19043732 C30.58544778 41.7924508 33.79307478 35.39641097 37 29 C12.25 28.505 12.25 28.505 -13 28 C-9.7459427 18.23782811 -4.60193196 9.20386392 0 0 Z " fill="#00C3FE" transform="translate(1048,14)"/>
<path d="M0 0 C45.54 0 91.08 0 138 0 C134.7459427 9.76217189 129.60193196 18.79613608 125 28 C107.84 28.33 90.68 28.66 73 29 C70.12410156 34.76339844 67.24820313 40.52679688 64.28515625 46.46484375 C62.46701664 50.1062299 60.64876012 53.74755671 58.83007812 57.38867188 C55.94065935 63.17349722 53.05168618 68.95854222 50.1652832 74.74487305 C47.83931521 79.40764007 45.51141888 84.06943955 43.18215752 88.73056221 C42.29192162 90.51288786 41.4023922 92.29556656 40.51356697 94.07859612 C39.27268905 96.56756521 38.02935048 99.05528986 36.78540039 101.54272461 C36.41496613 102.28718842 36.04453186 103.03165222 35.66287231 103.79867554 C33.11405216 108.88594784 33.11405216 108.88594784 32 110 C29.40640678 110.08851529 26.83960309 110.11525945 24.24609375 110.09765625 C23.47064713 110.0962413 22.6952005 110.09482635 21.89625549 110.09336853 C19.40996506 110.08775345 16.9237634 110.07519846 14.4375 110.0625 C12.75586067 110.05748694 11.07421994 110.0529237 9.39257812 110.04882812 C5.26168434 110.03777913 1.13085724 110.02050445 -3 110 C4.66533086 93.48708329 12.8269145 77.22557906 20.98840332 60.95452881 C23.12139635 56.70078462 25.25125972 52.44547257 27.38167572 48.19043732 C30.58544778 41.7924508 33.79307478 35.39641097 37 29 C12.25 28.505 12.25 28.505 -13 28 C-9.7459427 18.23782811 -4.60193196 9.20386392 0 0 Z " fill="#00C3FE" transform="translate(594,14)"/>
<path d="M0 0 C3.63 0 7.26 0 11 0 C11 64.68 11 129.36 11 196 C7.37 196 3.74 196 0 196 C0 131.32 0 66.64 0 0 Z " fill="#00C3FE" transform="translate(176,0)"/>
<path d="M0 0 C15.18 0 30.36 0 46 0 C44.68 2.97 43.36 5.94 42 9 C30.45 9 18.9 9 7 9 C6.67 10.32 6.34 11.64 6 13 C16.89 13 27.78 13 39 13 C36.31258075 21.06225775 31.97628103 28.48924695 28 36 C12.82 36 -2.36 36 -18 36 C-16.02 31.545 -16.02 31.545 -14 27 C-2.45 27 9.1 27 21 27 C21.33 25.68 21.66 24.36 22 23 C11.11 23 0.22 23 -11 23 C-8.31258075 14.93774225 -3.97628103 7.51075305 0 0 Z " fill="#00C3FE" transform="translate(433,146)"/>
<path d="M0 0 C15.18 0 30.36 0 46 0 C35.64695946 21.85641892 35.64695946 21.85641892 31.9375 28.6875 C31.54884766 29.41259766 31.16019531 30.13769531 30.75976562 30.88476562 C29.8439392 32.59204698 28.92268425 34.29641512 28 36 C24.04 36 20.08 36 16 36 C17.98 31.71 19.96 27.42 22 23 C14.74 23 7.48 23 0 23 C-0.66 24.98 -1.32 26.96 -2 29 C-3.22201019 31.41726104 -4.60439781 33.67399634 -6 36 C-9.96 36 -13.92 36 -18 36 C-16.69287863 33.18489937 -15.3793341 30.37305637 -14.0625 27.5625 C-13.70865234 26.79873047 -13.35480469 26.03496094 -12.99023438 25.24804688 C-8.94954743 16.6486362 -4.46540028 8.43464498 0 0 Z M7 9 C6.67 10.32 6.34 11.64 6 13 C13.26 13 20.52 13 28 13 C28.33 11.68 28.66 10.36 29 9 C21.74 9 14.48 9 7 9 Z " fill="#00C3FE" transform="translate(333,146)"/>
<path d="M0 0 C15.18 0 30.36 0 46 0 C40.256619 12.12491545 34.27737249 24.14274085 28 36 C12.82 36 -2.36 36 -18 36 C-12.256619 23.87508455 -6.27737249 11.85725915 0 0 Z M7 9 C5.68 11.59875 4.36 14.1975 3 16.875 C2.58234375 17.69210449 2.1646875 18.50920898 1.734375 19.35107422 C1.40953125 19.9957666 1.0846875 20.64045898 0.75 21.3046875 C0.41484375 21.96452637 0.0796875 22.62436523 -0.265625 23.30419922 C-1.13246413 24.9978855 -1.13246413 24.9978855 -1 27 C6.26 27 13.52 27 21 27 C22.32 24.40125 23.64 21.8025 25 19.125 C25.41765625 18.30789551 25.8353125 17.49079102 26.265625 16.64892578 C26.59046875 16.0042334 26.9153125 15.35954102 27.25 14.6953125 C27.75273438 13.7055542 27.75273438 13.7055542 28.265625 12.69580078 C29.13246413 11.0021145 29.13246413 11.0021145 29 9 C21.74 9 14.48 9 7 9 Z " fill="#00C3FE" transform="translate(533,146)"/>
<path d="M0 0 C15.18 0 30.36 0 46 0 C37 19 37 19 35 23 C32.375 23.75 32.375 23.75 30 24 C30.66 24.66 31.32 25.32 32 26 C31.67800066 29.97132519 30.16420003 32.70665213 28 36 C24.55106156 34.52028789 22.35517546 32.57640468 19.7421875 29.90234375 C18.95199219 29.10119141 18.16179688 28.30003906 17.34765625 27.47460938 C16.53167969 26.63736328 15.71570313 25.80011719 14.875 24.9375 C13.24961294 23.27777378 11.62211373 21.62011253 9.9921875 19.96484375 C9.27401855 19.2287085 8.55584961 18.49257324 7.81591797 17.73413086 C6.10478455 15.92976993 6.10478455 15.92976993 4 15 C3.75507812 15.82757813 3.51015625 16.65515625 3.2578125 17.5078125 C1.80806511 21.53288756 -0.0723051 25.13227714 -2.125 28.875 C-2.49753906 29.56335938 -2.87007812 30.25171875 -3.25390625 30.9609375 C-4.16499526 32.64294798 -5.08190315 34.32180436 -6 36 C-9.96 36 -13.92 36 -18 36 C-16.69287863 33.18489937 -15.3793341 30.37305637 -14.0625 27.5625 C-13.70865234 26.79873047 -13.35480469 26.03496094 -12.99023438 25.24804688 C-8.94954743 16.6486362 -4.46540028 8.43464498 0 0 Z M7 9 C6.67 10.32 6.34 11.64 6 13 C13.26 13 20.52 13 28 13 C28.33 11.68 28.66 10.36 29 9 C21.74 9 14.48 9 7 9 Z " fill="#00C3FE" transform="translate(583,146)"/>
<path d="M0 0 C15.18 0 30.36 0 46 0 C37 19 37 19 35 23 C32.375 23.75 32.375 23.75 30 24 C30.66 24.66 31.32 25.32 32 26 C31.67800066 29.97132519 30.16420003 32.70665213 28 36 C24.55106156 34.52028789 22.35517546 32.57640468 19.7421875 29.90234375 C18.95199219 29.10119141 18.16179687 28.30003906 17.34765625 27.47460938 C16.53167969 26.63736328 15.71570313 25.80011719 14.875 24.9375 C13.24961294 23.27777378 11.62211373 21.62011253 9.9921875 19.96484375 C9.27401855 19.2287085 8.55584961 18.49257324 7.81591797 17.73413086 C6.10478455 15.92976993 6.10478455 15.92976993 4 15 C3.75507813 15.82757813 3.51015625 16.65515625 3.2578125 17.5078125 C1.80806511 21.53288756 -0.0723051 25.13227714 -2.125 28.875 C-2.49753906 29.56335938 -2.87007813 30.25171875 -3.25390625 30.9609375 C-4.16499526 32.64294798 -5.08190315 34.32180436 -6 36 C-9.96 36 -13.92 36 -18 36 C-16.69287863 33.18489937 -15.3793341 30.37305637 -14.0625 27.5625 C-13.70865234 26.79873047 -13.35480469 26.03496094 -12.99023438 25.24804688 C-8.94954743 16.6486362 -4.46540028 8.43464498 0 0 Z M7 9 C6.67 10.32 6.34 11.64 6 13 C13.26 13 20.52 13 28 13 C28.33 11.68 28.66 10.36 29 9 C21.74 9 14.48 9 7 9 Z " fill="#00C3FE" transform="translate(283,146)"/>
<path d="M0 0 C15.18 0 30.36 0 46 0 C37 19 37 19 35 23 C31.48003799 23.20488457 27.96162121 23.32813842 24.4375 23.4375 C23.44685547 23.49615234 22.45621094 23.55480469 21.43554688 23.61523438 C14.11516348 23.78547585 14.11516348 23.78547585 10.79345703 21.44580078 C9.07594278 19.70334984 7.550514 17.8889119 6 16 C5.34 15.67 4.68 15.34 4 15 C3.75507813 15.82757813 3.51015625 16.65515625 3.2578125 17.5078125 C1.80806511 21.53288756 -0.0723051 25.13227714 -2.125 28.875 C-2.49753906 29.56335938 -2.87007813 30.25171875 -3.25390625 30.9609375 C-4.16499526 32.64294798 -5.08190315 34.32180436 -6 36 C-9.96 36 -13.92 36 -18 36 C-16.69287863 33.18489937 -15.3793341 30.37305637 -14.0625 27.5625 C-13.70865234 26.79873047 -13.35480469 26.03496094 -12.99023438 25.24804688 C-8.94954743 16.6486362 -4.46540028 8.43464498 0 0 Z M7 9 C6.67 10.32 6.34 11.64 6 13 C13.26 13 20.52 13 28 13 C28.33 11.68 28.66 10.36 29 9 C21.74 9 14.48 9 7 9 Z " fill="#00C3FE" transform="translate(483,146)"/>
<path d="M0 0 C4.42723064 0.49342694 6.34964147 1.87049446 9.42578125 5.03515625 C10.22177734 5.84404297 11.01777344 6.65292969 11.83789062 7.48632812 C12.65451172 8.33646484 13.47113281 9.18660156 14.3125 10.0625 C15.14845703 10.91650391 15.98441406 11.77050781 16.84570312 12.65039062 C18.90642344 14.75821312 20.95723209 16.87479849 23 19 C24.91558161 16.5285896 26.58797716 14.09499425 28.04296875 11.328125 C28.39423828 10.66425781 28.74550781 10.00039062 29.10742188 9.31640625 C29.46384766 8.63449219 29.82027344 7.95257813 30.1875 7.25 C30.55552734 6.55261719 30.92355469 5.85523438 31.30273438 5.13671875 C32.20490847 3.42610293 33.10287712 1.7132703 34 0 C37.96 0 41.92 0 46 0 C40.33791027 12.19424053 34.40319863 24.17754579 28 36 C23.57276936 35.50657306 21.65035853 34.12950554 18.57421875 30.96484375 C17.38022461 29.75151367 17.38022461 29.75151367 16.16210938 28.51367188 C15.34548828 27.66353516 14.52886719 26.81339844 13.6875 25.9375 C12.85154297 25.08349609 12.01558594 24.22949219 11.15429688 23.34960938 C9.09357656 21.24178688 7.04276791 19.12520151 5 17 C3.08441839 19.4714104 1.41202284 21.90500575 -0.04296875 24.671875 C-0.56987305 25.66767578 -0.56987305 25.66767578 -1.10742188 26.68359375 C-1.64206055 27.70646484 -1.64206055 27.70646484 -2.1875 28.75 C-2.55552734 29.44738281 -2.92355469 30.14476562 -3.30273438 30.86328125 C-4.20490847 32.57389707 -5.10287712 34.2867297 -6 36 C-9.96 36 -13.92 36 -18 36 C-12.33791027 23.80575947 -6.40319863 11.82245421 0 0 Z " fill="#00C3FE" transform="translate(383,146)"/>
<path d="M0 0 C1.98684692 -0.36076355 1.98684692 -0.36076355 4.44970703 -0.34057617 C5.37051056 -0.34034958 6.29131409 -0.34012299 7.24002075 -0.33988953 C8.73382767 -0.31666374 8.73382767 -0.31666374 10.2578125 -0.29296875 C11.27600067 -0.28872391 12.29418884 -0.28447906 13.3432312 -0.28010559 C16.60408673 -0.26327579 19.86433041 -0.22561546 23.125 -0.1875 C25.33202234 -0.17245874 27.53905434 -0.15876937 29.74609375 -0.14648438 C35.16429924 -0.11335814 40.58204579 -0.06154614 46 0 C44.68 2.97 43.36 5.94 42 9 C36.06 9 30.12 9 24 9 C23.34 10.98 22.68 12.96 22 15 C21.25161298 16.65777839 20.46910681 18.30060113 19.65234375 19.92578125 C19.21212891 20.80427734 18.77191406 21.68277344 18.31835938 22.58789062 C17.86267578 23.48701172 17.40699219 24.38613281 16.9375 25.3125 C16.47794922 26.23095703 16.01839844 27.14941406 15.54492188 28.09570312 C12.14055525 34.85944475 12.14055525 34.85944475 11 36 C8.98035801 36.07244053 6.95832876 36.08377188 4.9375 36.0625 C3.28041016 36.04896484 3.28041016 36.04896484 1.58984375 36.03515625 C0.73519531 36.02355469 -0.11945312 36.01195312 -1 36 C0.41518558 32.9992992 1.83242433 29.99957233 3.25 27 C3.64574219 26.16082031 4.04148437 25.32164062 4.44921875 24.45703125 C6.90173288 19.27056694 9.41532658 14.12192163 12 9 C6.72 9 1.44 9 -4 9 C-2 3 -2 3 0 0 Z " fill="#00C3FE" transform="translate(633,146)"/>
<path d="M0 0 C1.98684692 -0.36076355 1.98684692 -0.36076355 4.44970703 -0.34057617 C5.37051056 -0.34034958 6.29131409 -0.34012299 7.24002075 -0.33988953 C8.73382767 -0.31666374 8.73382767 -0.31666374 10.2578125 -0.29296875 C11.27600067 -0.28872391 12.29418884 -0.28447906 13.3432312 -0.28010559 C16.60408673 -0.26327579 19.86433041 -0.22561546 23.125 -0.1875 C25.33202234 -0.17245874 27.53905434 -0.15876937 29.74609375 -0.14648438 C35.16429924 -0.11335814 40.58204579 -0.06154614 46 0 C44.68 2.97 43.36 5.94 42 9 C36.06 9 30.12 9 24 9 C23.34 10.98 22.68 12.96 22 15 C21.25161298 16.65777839 20.46910681 18.30060113 19.65234375 19.92578125 C19.21212891 20.80427734 18.77191406 21.68277344 18.31835938 22.58789062 C17.86267578 23.48701172 17.40699219 24.38613281 16.9375 25.3125 C16.47794922 26.23095703 16.01839844 27.14941406 15.54492188 28.09570312 C12.14055525 34.85944475 12.14055525 34.85944475 11 36 C8.98035801 36.07244053 6.95832876 36.08377188 4.9375 36.0625 C3.28041016 36.04896484 3.28041016 36.04896484 1.58984375 36.03515625 C0.73519531 36.02355469 -0.11945313 36.01195312 -1 36 C0.41518558 32.9992992 1.83242433 29.99957233 3.25 27 C3.64574219 26.16082031 4.04148438 25.32164062 4.44921875 24.45703125 C6.90173288 19.27056694 9.41532658 14.12192163 12 9 C6.72 9 1.44 9 -4 9 C-2 3 -2 3 0 0 Z " fill="#00C3FE" transform="translate(233,146)"/>
</svg>
